<?xml version="1.0" encoding="UTF-8"?>
<svg id="Livello_1" data-name="Livello 1" xmlns="http://www.w3.org/2000/svg" xmlns:xlink="http://www.w3.org/1999/xlink" viewBox="0 0 345.77 268.84">
  <defs>
    <style>
      .cls-1 {
        fill: #6e2b10;
      }

      .cls-2 {
        fill: url(#Sfumatura_senza_nome_11);
      }
    </style>
    <linearGradient id="Sfumatura_senza_nome_11" data-name="Sfumatura senza nome 11" x1="172.88" y1="60.47" x2="172.88" y2="175.65" gradientUnits="userSpaceOnUse">
      <stop offset=".12" stop-color="#ce7b10"/>
      <stop offset=".98" stop-color="#6e2a10"/>
    </linearGradient>
  </defs>
  <path class="cls-2" d="M118.02,175.65h-25.08V60.47h25.08v115.18ZM150.86,85.99h-25.08v89.65h25.08v-89.65ZM183.69,60.47h-25.08v115.18h25.08V60.47ZM216.53,60.47h-25.08v115.18h25.08V60.47ZM249.37,85.99h-25.08v89.65h25.08v-89.65ZM138.32,83.83c8.84,0,16.01-8.33,16.01-18.61h-32.01c0,10.28,7.17,18.61,16.01,18.61ZM236.82,83.83c8.84,0,16.01-8.33,16.01-18.61h-32.01c0,10.28,7.17,18.61,16.01,18.61Z"/>
  <g>
    <path class="cls-1" d="M152.23,199.76c.2,1.38.3,2.8.68,4.14.24.83.63,1.73,1.46,2.11,2.03.9,4.35-1.83,5.54-3.16,1.78-1.99,3.33-4.22,4.54-6.6,1.11-2.18,2.1-4.71,1.91-7.21-.1-1.34-.69-3.69-2.44-3.6-1.6.08-2.47,2.06-2.85,3.36-.83,2.88-.42,6.03.34,8.88.64,2.36,1.17,5.21,2.87,7.08,4.03,4.45,8.14-5.26,8.79-8.12.2-.89-1.16-1.27-1.37-.38-.39,1.69-1.14,3.34-1.98,4.84-.59,1.07-1.99,3.74-3.58,3.26-.86-.26-1.37-1.28-1.73-2.02-.48-.99-.8-2.06-1.1-3.12-.71-2.47-1.37-4.96-1.26-7.56.06-1.44.31-3.53,1.48-4.56.27-.23.49-.33.66-.19.44.36.62,1.2.71,1.73.32,1.93-.37,4-1.13,5.75-.89,2.03-2.08,3.94-3.42,5.71-.69.91-1.43,1.78-2.23,2.59-.72.73-1.64,1.73-2.66,2-1.62.43-1.72-4.38-1.86-5.31s-1.5-.52-1.37.38h0Z"/>
    <path class="cls-1" d="M145.49,203.71c.1.94.35,1.9,1.15,2.5s1.85.59,2.71.24c1.83-.74,3.24-2.5,3.93-4.3.77-2.02.38-4.73-1.53-6.02-1.75-1.18-3.74.29-4.82,1.67-.76.96-1.39,2.09-.88,3.33.27.65.76,1.23,1.36,1.61.77.49,1.49-.74.72-1.22-.02-.01-.05-.03-.07-.05-.03-.02-.05-.04-.08-.06.13.1.04.03-.03-.03-.21-.19-.35-.34-.45-.51-.16-.25-.24-.47-.22-.77.02-.34.23-.69.43-.99.4-.59.91-1.18,1.49-1.57.3-.2.52-.32.84-.4.24-.06.43-.05.67.03.07.02.22.1.35.19.1.08.25.23.35.35.26.32.47.71.61,1.1.27.74.28,1.53.09,2.29-.37,1.46-1.39,2.86-2.62,3.66-.15.1-.31.19-.47.27-.17.09-.14.08-.35.14-.07.02-.14.04-.22.06-.01,0-.11.02-.03,0,.12-.02-.19.01-.14,0-.21,0-.41,0-.61-.07-.54-.2-.73-.93-.79-1.48-.04-.38-.3-.71-.71-.71-.35,0-.75.33-.71.71h0Z"/>
    <path class="cls-1" d="M180.62,201.06c1.08-1.68,2.16-3.36,3.31-4.99.7-.99,1.42-1.97,2.2-2.89.47-.55,1.14-1.51,1.87-1.74.08-.03-.2-.18-.1-.04.14.19.17.55.23.79.21.9.33,1.83.44,2.74.28,2.29.46,4.6.63,6.9.1,1.44.19,2.87.27,4.31.04.76,1.21,1.01,1.39.19.91-4.19,1.92-8.47,3.53-12.45.2-.49.41-.97.66-1.44.14-.26.57-.67.64-.93.03-.12-.23-.22-.26-.16-.04.07.22.81.24.95.5,2.57.54,5.26.65,7.87.08,1.99.14,3.98.17,5.97.01.86,1.1.89,1.39.19-.14.33.1-.23.13-.3.12-.29.25-.57.37-.86.38-.86.77-1.72,1.18-2.57.43-.9.88-1.8,1.37-2.67.2-.35.41-.72.65-1.05.05-.06.28-.28.28-.33l.08-.07c-.03.13-.16.15-.39.04-.03.13.4.79.46.96.18.48.32.97.5,1.45.29.8.61,1.69,1.25,2.27,1.53,1.4,4.35-.33,5.69-1.31l-1.04-.42c.2,1.27,1.03,2.61,2.3,3.03,2.55.83,5.46-1.65,6.82-3.56.75-1.04,1.14-2.38.42-3.55-.69-1.11-2.09-1.67-3.35-1.6-1.87.1-3.69,1.37-4.93,2.72-.61.67.39,1.68,1,1,.74-.81,1.67-1.54,2.68-1.97.91-.39,1.97-.52,2.83.06,1.34.9.5,2.24-.31,3.17-.98,1.12-3.44,3.25-5.05,2.23-.62-.39-.94-1.2-1.05-1.9-.07-.43-.7-.68-1.04-.42s-.7.47-1.07.68c-.6.34-1.97,1.17-2.67.97-.78-.22-1.09-1.66-1.32-2.33-.34-1-1.1-3.76-2.66-2.56-1.3,1-2.05,3.16-2.73,4.58-.62,1.3-1.21,2.62-1.77,3.95l1.39.19c-.03-1.99-.09-3.98-.17-5.97-.12-2.81-.13-5.77-.75-8.53-.15-.65-.36-1.48-1.13-1.59-.82-.11-1.4.67-1.79,1.27-1.48,2.33-2.17,5.31-2.9,7.94-.61,2.21-1.17,4.44-1.66,6.68l1.39.19c-.21-4.07-.46-8.16-1.02-12.19-.14-1.05-.19-3.6-1.56-3.91-1.7-.38-3.5,2.49-4.31,3.56-1.65,2.16-3.13,4.45-4.6,6.74-.49.77.73,1.48,1.22.72h0Z"/>
    <path class="cls-1" d="M216.94,199.01c.34,1.94.93,4.74,2.66,5.94,2.13,1.48,3.66-1.1,4.41-2.74.57-1.26,1.03-2.56,1.62-3.82s1.16-2.06,2.7-2.05,1.26,1.09,1.26,2.24.01,2.38.3,3.52c1.45,5.76,9.41-.93,11.24-3.25.85-1.08,2.25-4.42-.42-4.2-2.05.17-4.34,2.66-4.41,4.68-.07,1.83,1.25,3.63,2.83,4.42,3.12,1.55,6.65-.42,9.12-2.29.72-.54.01-1.77-.72-1.22-1.96,1.48-4.8,3.36-7.39,2.41-1.2-.44-2.29-1.63-2.42-2.94-.08-.83.38-1.58.91-2.19.23-.26,1.99-1.86,2.3-1.47.33.42-.96,1.99-1.22,2.29-.84.96-1.83,1.78-2.87,2.51-.96.67-4.14,3.08-5.2,1.83s-.61-3.78-.63-5.21c-.02-1.95-1.43-2.74-3.3-2.5-2.04.26-2.82,1.56-3.58,3.31-.5,1.15-.93,2.33-1.46,3.46-.3.65-.87,2.2-1.78,2.21-1.67.02-2.38-4.14-2.58-5.32-.16-.9-1.52-.52-1.37.38h0Z"/>
  </g>
</svg>