<?xml version="1.0" encoding="UTF-8"?>
<svg id="Livello_6" data-name="Livello 6" xmlns="http://www.w3.org/2000/svg" viewBox="0 0 1307.23 1512.68">
  <defs>
    <style>
      .cls-1 {
        fill: #6e2b10;
      }
    </style>
  </defs>
  <path class="cls-1" d="M724.99,296.47c9.82,7.01,14.67,15.12,15.58,27.04.69,8.95,1.26,17.55,6.5,25.21,4.26,6.22,8.8,8.65,16.19,9.06,6.47.36,13.3-.55,19.5,1.76,13.23,4.94,20.02,33.37,2.32,36.63-5.2.96-11.55-1.38-12.9-7.01-.39-1.62-.02-2.72.57-4,.2-.44.92-.75,1.34-.85,3.61-.85,7.17,1.3,8.76,5.02,3.41,8.04-.73,18.54-3.72,25.97-.84,2.09,1.93,2.41,3.26,2.18,2.16-.37,4.17-2.08,4.98-4.08,4.02-9.99,11.07-36.15-7.86-35.86-10.75.16-21.9,12.51-11.91,21.6,5.99,5.45,15.5,4.33,22.22,1.04,8.52-4.17,14.25-12.35,14.22-21.97-.02-9.93-4.99-20.78-14.58-24.61-7.71-3.08-15.86-1.53-23.87-2.48-11.89-1.4-15.56-16.13-16.31-26.16-.43-5.74-.64-11.46-2.63-16.92-2.71-7.42-8.39-12.88-14.7-17.37-2.74-1.96-10.16,3.54-6.98,5.81h0Z"/>
  <path class="cls-1" d="M718.04,300.67c-6.1,13.82-17.29,26.57-30.87,33.37-20.12,10.07-39.38.75-53.43-14.84-3.08-3.42-4.85,6.07-2.58,8.59,14.77,16.38,35.25,26.34,56.57,16.28,15.05-7.1,27.59-21.35,34.26-36.47.89-2.01,1.22-5.08-.12-6.99-1.07-1.52-2.91-2.02-3.83.07h0Z"/>
  <path class="cls-1" d="M630.87,317.67c5.18-4.03,8.64,7.21,8.21,10.88-.19,1.61-1.03,3.72-1.78,5.66-2.67,6.95-6.41,13.58-11.14,19.33-5.77,7-13.39,12.41-22.51,13.81-14.3,2.19-28.11-4.79-39.38-12.88-2.85-2.05-9.5,4.94-7.09,6.67,10.9,7.82,23.46,14.37,37.23,14.1,9.93-.2,19.29-4.3,26.97-10.44,11.56-9.26,22.02-24.26,25.18-38.98.86-4.02.06-8.25-2.07-11.79-3.65-6.06-9.76-5.41-14.85-1.45-1.17.91-4.09,3.5-3.23,5.31s3.29.7,4.47-.22h0Z"/>
  <path class="cls-1" d="M575.1,374.03c-8,19.81,7.46,37.77,24.69,45.39,1.52.67,7.05-.43,4.22-1.69-10.39-4.6-19.77-11.78-23.49-22.91-2.07-6.2-2.31-13.65.17-19.79.8-1.97-4.92-2.64-5.58-1h0Z"/>
  <path class="cls-1" d="M576.14,414.1c-8.68,2.59-18.98,3.28-27.37-.71-9.25-4.4-12.56-15.1-10.41-24.66.68-3,2.42-8.82,5.35-10.5,1-.57-.59,0-.55.03.4.38.88.91,1.01,1.46.05.24.4,1.4.54,1.51.04.27.02.53-.08.78.49-.35.98-.7,1.47-1.05-.18-.23-3.78-.3-4.39-.44-2.18-.51-4.3-1.34-6.35-2.23-5.3-2.32-10.53-5.5-15.01-9.17-8.36-6.84-12.07-18.33-13.25-28.72-1.44-12.65.48-25.94,6.44-37.26,7.8-14.82,22.19-22.4,38.71-22.55,1.62-.01,4.06-.6,4.92-2.17.65-1.19.66-2.69-1.18-2.67-19.12.17-37.14,8.1-47.37,24.78-8.72,14.22-10.99,32.09-7.63,48.29,3.84,18.49,17.76,32.44,36.57,36.51,5.01,1.08,16.81-.07,13.85-8.03-3.29-8.81-13.3-1.14-16.34,3.69-6.41,10.18-6.49,25.82,3.45,33.87,10.05,8.15,25.74,7.18,37.39,3.71,3.54-1.06,5.14-5.93.24-4.46h0Z"/>
  <path class="cls-1" d="M565.49,268.82c-3.21-11.78,2.21-24.85,10.67-33.1,11.99-11.7,29.02-11.74,43.83-5.86.59.23,1.03.11,1.47-.35,21.19-21.83,52.4-34.37,82.84-31.62,30.87,2.79,61.6,20.1,69.66,51.61,2.57,10.06,3.18,21.4,1,31.59-.76,3.52,2.56,7.01,3.62,2.07,4.73-22.07-.73-48.13-15.53-65.31-23.93-27.78-67.18-33.68-100.47-22.11-16.1,5.6-31.03,15-42.91,27.23l1.47-.35c-17.07-6.78-36.14-5.72-48.86,8.75-9.59,10.91-14.01,27.03-10.16,41.17,1.29,4.72,4.09-1.05,3.36-3.73h0Z"/>
  <path class="cls-1" d="M783.74,277.78c12.03.2,27.05,6.91,32.1,18.37,6.47,14.69,8.61,34.42,0,48.66-.43.71-.38,1.36.11,2.05,3.45,4.84,5.37,11.1,5.42,17.07.04,3.76,9.62,5.11,9.58,1.85-.07-7.07-2.13-14.13-6.24-19.89.04.68.07,1.37.11,2.05,9.42-15.58,7.97-39.84-1.48-55.27-7.89-12.87-26.65-20.03-41.21-20.28-6.53-.11-3.17,5.31,1.6,5.39h0Z"/>
  <path class="cls-1" d="M818.88,373.03c1.66,1.62,2.09,2.47,2.98,5.2.96,2.92,1.37,6.05,1.51,9.12.34,7.2-.99,14.67-4.21,21.14-9.44,18.99-30.29,18.9-47.88,12.05-4.09-1.59-.76,8.02,2.18,9.17,15.81,6.15,35.03,8.27,47.15-5.96,8.79-10.33,10.91-25.65,8.5-38.64-1.26-6.8-4.06-13.87-9.08-18.78-1.27-1.24-3.07-2.21-3.84-.06-.72,2.01,1.33,5.44,2.67,6.75h0Z"/>
  <path class="cls-1" d="M563.29,422.89c-3.7,11.76,7.18,20.38,18.19,20.69,1.85.05,2.17-1.35,1.18-2.64-1.23-1.61-3.76-2.5-5.71-2.56-6.08-.17-7.04-7.22-5.58-11.87.9-2.87-7.27-6.19-8.08-3.62h0Z"/>
  <path class="cls-1" d="M772.79,402.15c-4.57,8.43-10.96,15.02-17.68,21.73-3.14,3.14-5.22,5.8-6.21,10.09-2.41,10.4-5.83,20.44-11.88,29.36-4.4,6.5-9.98,12.1-16.57,16.39-3.52,2.29-7.29,4.2-11.2,5.74-1.99.78-3.96,1.3-5.74,2.44-2.05,1.31-3.92,2.96-5.97,4.3-13.86,9.05-30.23,9.75-45.69,4.24-4.27-1.52-7.57-4.44-10.57-7.77-7.3-8.09-12.88-17.82-18.32-27.19-1.11-1.92-7.68-4-5.66-.52,7.62,13.12,16.2,29.58,30.04,37.3,11.68,6.51,28.28,8.49,41,5.08,3.89-1.05,7.62-2.59,11.14-4.56,4.1-2.29,7.72-5.87,11.95-7.7,8.58-3.73,16.3-7.25,23.19-13.82,9.82-9.35,15.89-21.61,19.34-34.59,1.08-4.07,1.38-8.21,4.11-11.56s6.21-6.28,9.24-9.44c4.58-4.78,8.55-9.95,11.71-15.78,1.17-2.17-5.08-5.82-6.22-3.72h0Z"/>
  <path class="cls-1" d="M669.13,375.09c7.38.23,14.84.99,21.96,3.05,5.38,1.56,12.45,4.14,14.67,9.82,1.46,3.73,3.83-2.71,2.99-4.86-5.28-13.49-27.04-14.81-39.05-15.18-2.59-.08-3.07,7.09-.56,7.17h0Z"/>
  <path class="cls-1" d="M737.17,409.5c7.94,1.43,19.34,5.01,20.77,14.36.59,3.84,4.32-1.71,4-3.79-1.67-10.9-12.35-15.39-22.13-17.15-2.42-.44-4.62,6.22-2.65,6.57h0Z"/>
  <path class="cls-1" d="M591.2,432.55c-4.43,8.1-8.47,16.55-11.44,25.3-.79,2.33,5.26,2.56,5.94.56,2.97-8.75,7.01-17.2,11.44-25.3,1.09-2-4.9-2.47-5.94-.56h0Z"/>
  <path class="cls-1" d="M584.48,451.09c-17.2.37-34.22,4.97-49.73,12.29-14.91,7.04-28.95,16.7-39.92,29.08-4.95,5.58-9.22,11.77-12.39,18.53-3.64,7.76-6.73,15.95-9.25,24.14-2.14,6.95-3.69,14.03-4.95,21.19-.39,2.2-.76,4.4-1.13,6.6-.17,1.05-.35,2.1-.52,3.16-.04.27-.09.55-.13.82-.02.14-.18,1.01-.07.42.1-.53-.02.11-.05.23-.05.25-.1.5-.15.75-.83,3.87-2.06,7.52-3.51,11.31-3.26,8.5-8.22,16.15-12.12,24.35-3.45,7.26-6.85,14.9-8.49,22.81-.36,1.72-.6,3.46-.71,5.21-.07,1.22-.06,2.5.11,3.71.05.4.2,1.88.63,2.21,1.04.8,1.29-3.08,1.3-3.37.06-1.02-.14.9-.02.19.02-.1.06-.83.12-.85,0,0-.17.87-.05.3.03-.16.06-.31.09-.47.08-.37.16-.75.25-1.12s.17-.7.26-1.06c.05-.18.1-.37.15-.55.13-.47-.12.39.02-.09.25-.86.52-1.71.8-2.56,1.32-3.98,2.9-7.87,4.6-11.7,1.97-4.44,4.12-8.81,6.43-13.08,2.01-3.74,4.2-7.35,5.9-11.24,1.68-3.83,3.13-7.77,4.32-11.79,1.22-4.13,1.94-8.29,2.64-12.54.08-.5.17-1.01.25-1.51.04-.25.08-.49.12-.74.02-.1.12-.73.02-.12.16-.94.32-1.88.49-2.81.32-1.81.66-3.62,1.01-5.42.67-3.38,1.43-6.74,2.33-10.07.41-1.53.8-2.85,1.36-4.63.55-1.75,1.14-3.5,1.75-5.23,1.5-4.24,3.15-8.42,4.88-12.57,1.48-3.57,2.99-7.07,4.95-10.41,1.82-3.1,3.88-6.06,6.11-8.88,10-12.63,23.29-22.62,37.51-30.05,15.07-7.88,31.73-13.17,48.73-14.51,2.02-.16,4.04-.26,6.07-.3,1.14-.02,1.07-4.13,1.06-4.82,0-.61.06-4.84-1.06-4.82h0Z"/>
  <path class="cls-1" d="M436.02,642.23c-8.34,14.28-14.95,29.73-19.77,45.55-2.04,6.71-3.17,13.56-5.37,20.22-2.96,8.99-5.43,18.08-7,27.43-1.16,6.93-1.92,13.93-2.35,20.94-.58,9.65.65,19.75-.79,29.27-1.26,8.33-3.27,16.57-4.23,24.95-.23,1.96,6.04-1.12,6.32-3.52-.07.6-.04.15.04-.29.19-.99.3-1.99.46-2.98.84-5.21,1.76-10.41,2.69-15.61,2.95-16.52.96-33.54,3.28-50.28,2.23-16.07,7.49-31.53,11.58-47.16,4.53-17.34,11.74-34.29,20.77-49.74,2-3.43-4.57-.62-5.64,1.2h0Z"/>
  <path class="cls-1" d="M581.76,577.25c-2.86,9.7-7.49,18.92-12.7,27.55-6.64,10.99-14.62,21.81-24.7,29.89-6.53,5.23-16.09,8.99-19.2,17.33-4.1,11-9.07,21.56-17.53,29.97-1.71,1.7,3.21,6.4,4.98,4.64,7.95-7.91,13.98-18.56,17.48-29.17,3.1-9.41,13.36-13.18,20.51-19.17,9.87-8.26,17.72-19.16,24.23-30.18,5.04-8.52,9.57-17.55,12.37-27.07.66-2.25-4.7-6.32-5.45-3.78h0Z"/>
  <path class="cls-1" d="M496.37,692.96c.03,39.15-23.15,75.79-47.33,104.77-1.49,1.78,4.59,3.66,6,1.97,24.3-29.12,47.74-66.2,47.71-105.56,0-2.37-6.38-3.21-6.38-1.17h0Z"/>
  <path class="cls-1" d="M706.18,502.26c2.56,2.81,7.05,3.83,10.47,5.18,6.87,2.72,13.54,5.86,19.83,9.75,24.26,14.99,41.26,38.93,53.57,64.21,1.59,3.28,3.37-2.75,2.51-4.52-12.23-25.13-28.75-49.09-52.5-64.58-6.64-4.33-13.73-7.83-21.07-10.78-3.11-1.25-8.68-2.51-10.83-4.87-1.93-2.12-3.3,4.15-1.98,5.6h0Z"/>
  <path class="cls-1" d="M715.53,446.88c.09.55.09,1.08.11,1.63.01.28.04-.45,0,.08-.01.15-.02.29-.04.43-.03.32-.07.64-.13.96s-.13.65-.21.98c-.04.15-.08.31-.13.46-.03.09-.05.17-.08.26-.1.34.08-.22,0,0-.25.65-.52,1.28-.88,1.88-.17.28-.36.54-.54.81-.25.37.11-.11-.1.13-.14.16-.28.31-.43.46-.25.25-.52.47-.8.68-.13.1-.27.19-.41.28-.06.04-.12.07-.18.11-.39.24.21-.09-.03.02-.34.16-.67.31-1.03.42-.17.05-.35.1-.52.14-.12.03-.61.12-.47.1.17-.02-.33.03-.43.04-.23.01-.47.02-.7.02-.21,0-.43-.01-.64-.03-.11,0-.82-.1-.55-.06-2.94-.5-5.41-1.94-7.92-3.63-.86-.58-2.17-.3-2.38.8-.24,1.27.75,2.38,1.71,3.03,4.03,2.71,9.72,5.66,14.69,3.74,3.29-1.28,5.22-4.42,5.97-7.74.35-1.55.47-3.23.22-4.8-.19-1.2-1.04-2.39-2.25-2.72-1.02-.28-2.05.4-1.87,1.54h0Z"/>
  <path class="cls-1" d="M524.32,653.69c.52,9.46,5.95,18.11,11.22,25.66,5.59,8.01,12.12,15.34,17.57,23.44,1.72,2.56,3.59,5.3,3.99,8.43.59,4.63-.36,9.7-.86,14.29-1.06,9.67-3.31,20.48-1.12,30.13.54,2.39,7.38,3.9,6.81,1.39-2.32-10.22.27-21.51,1.32-31.76.78-7.66,1.52-13.9-2.69-20.59-5.06-8.05-11.54-15.19-17.09-22.89-5.65-7.83-11.78-16.76-12.34-26.71-.13-2.38-6.97-4.18-6.81-1.39h0Z"/>
  <path class="cls-1" d="M765.14,580.05c-1.04,11.47-3.81,22.95-7.72,33.79-.79,2.19,4.23,7.06,5.06,4.77,4.03-11.18,6.83-23.03,7.9-34.86.19-2.15-4.95-6.82-5.23-3.69h0Z"/>
  <path class="cls-1" d="M749.08,619.75c7.56,20.58,13.64,41.56,16.43,63.36,4.39,34.38.6,69.45-11.85,101.86-9.21,23.95-22.85,45.81-39.2,65.52-1.73,2.09,4.95,4.58,6.49,2.71,26.91-32.45,46.01-70.94,51.57-112.98,3.92-29.64,1.23-59.85-6.44-88.68-2.79-10.5-6.29-20.76-10.03-30.95-.85-2.31-7.84-3.18-6.98-.85h0Z"/>
  <path class="cls-1" d="M705.56,865.27c-2.63,5.94-5.71,11.74-9.3,17.16-1.09,1.64,4.62,2.5,5.7.86,3.59-5.42,6.67-11.22,9.3-17.16.88-1.98-4.93-2.59-5.7-.86h0Z"/>
  <path class="cls-1" d="M719.25,852.2c3.21,15.03,5.71,30.13,4.84,45.56-1.27,22.47-8.74,44.09-17.88,64.47-1.28,2.86,2.16,11.29,4.4,6.28,9.62-21.45,17.03-44.09,18.43-67.69.99-16.69-1.49-33.05-4.97-49.33-.3-1.39-1.06-4.74-3.11-4.44-1.92.28-1.99,3.85-1.71,5.15h0Z"/>
  <path class="cls-1" d="M556.54,764.47c-11.7,5.22-22.02,13.45-30.66,22.82-11.14,12.07-19.32,26.67-24.05,42.38-5.56,18.47-6.11,38.69-2.76,57.63,2.93,16.59,9.16,32.25,18.92,46.02,9.24,13.04,21.12,24.03,33.65,33.84,1.62,1.27,3.26,2.52,4.9,3.75.69.52,1.52-.05,1.95-.58.7-.87,1.05-2.36,1.16-3.43.23-2.18.21-5.58-1.76-7.06-6.39-4.8-12.62-9.83-18.5-15.25-2.64-2.43-5.08-4.83-7.76-7.69-2.59-2.76-5.08-5.63-7.42-8.6-2.29-2.9-4.45-5.91-6.45-9.02-.49-.77-.98-1.54-1.45-2.31-.22-.37-.44-.73-.66-1.1-.11-.18-.22-.37-.33-.55-.06-.11-.61-1.06-.13-.22-.9-1.59-1.76-3.21-2.58-4.85-1.71-3.43-3.22-6.95-4.53-10.55-.15-.42-.3-.84-.45-1.26-.07-.21-.15-.42-.22-.63.34,1.07.15.44.07.21-.31-.97-.62-1.93-.91-2.9-.59-1.98-1.12-3.98-1.6-5.99-.22-.91-.42-1.83-.61-2.74-.1-.46-.19-.93-.28-1.39-.04-.18-.14-.5-.13-.7-.03,1.23.08.44,0-.04-.36-2.04-.66-4.08-.91-6.14-.28-2.25-.49-4.51-.64-6.77-.02-.26-.02-.52-.05-.77.01.13.07,1.39.02.36-.03-.52-.05-1.04-.08-1.56-.05-1.19-.09-2.38-.11-3.57-.04-2.38-.03-4.76.06-7.13.02-.54.05-1.08.07-1.62.04-.81-.08,1.12-.02.32.02-.33.04-.67.07-1,.09-1.19.19-2.38.32-3.56.23-2.19.54-4.37.91-6.54.04-.25.09-.5.13-.75.17-.95,0,.11-.05.25.17-.52.22-1.13.33-1.67.23-1.1.48-2.2.74-3.29.51-2.08,1.08-4.15,1.71-6.2.14-.46.29-.92.44-1.38.07-.21.12-.51.23-.68-.44.76-.15.45-.05.14.35-1.01.72-2.02,1.1-3.02,1.44-3.78,3.12-7.47,5-11.05.42-.8.85-1.59,1.29-2.38.37-.66.06-.11-.02.02.11-.19.22-.39.33-.58.28-.48.56-.96.85-1.43.99-1.64,2.03-3.26,3.11-4.84,2.06-3.02,4.28-5.94,6.64-8.73,2.28-2.7,4.71-5.28,7.24-7.74.08-.08.45-.43.03-.03.14-.13.28-.27.43-.4.28-.27.57-.53.85-.79.64-.59,1.28-1.16,1.93-1.73,1.23-1.08,2.49-2.13,3.78-3.15,4.62-3.66,9.56-6.94,14.81-9.62,1.13-.58,2.28-1.12,3.44-1.64.82-.36,1.32-1.92,1.51-2.64.36-1.36.46-3.03.25-4.42-.21-1.43-.94-4.98-3.11-4.01h0Z"/>
  <path class="cls-1" d="M599.03,1032.78c-8.92-2.18-16.32-12.72-21.01-19.83-9.87-14.98-15-32.75-15.15-50.66-.01-1.36-.24-4.33-1.99-4.73s-2.47,1.64-2.46,3.01c.16,19.87,5.18,39.38,15.74,56.3,5.24,8.4,13.99,21.1,24.39,23.64,3.31.81,3.25-7.06.48-7.74h0Z"/>
  <path class="cls-1" d="M644.36,845.85c18.9,20.15,31.52,46.59,39.45,72.81,5.51,18.2,8.64,37.13,9.33,56.12.18,4.99.19,9.98.03,14.97-.13,4.17-2,10.91.26,14.41,3.87,6,8.25,11.55,11.33,18.05,7.35,15.46,3.94,32.26.33,48.27-.76,3.39,6.09.71,6.62-1.66,3.16-13.99,6.61-29.14,2.37-43.28-1.86-6.2-5.05-11.87-8.58-17.26-2.35-3.59-5.96-7.02-6.06-11.43-.12-5.35.64-10.79.66-16.16.13-35.73-8.48-71.69-24.98-103.4-6.58-12.66-14.44-24.87-24.23-35.3-1.93-2.06-8.15,2.12-6.54,3.85h0Z"/>
  <path class="cls-1" d="M596,1029.47c-.07,9.22-1.01,18.45-1.22,27.68-.37,16.33,0,32.69,1.69,48.95,1.92,18.56,5.67,36.79,12.63,54.15,7.24,18.07,16.98,34.88,26.03,52.07,8.43,16,16.59,33.22,15.7,51.75-.11,2.2,5.48,1.08,5.57-.71.76-15.73-4.66-30.4-11.5-44.31-8.4-17.1-18.34-33.38-26.17-50.76-15.38-34.17-19.01-71.17-18.45-108.29.16-10.67,1.21-21.33,1.29-31.98.01-1.63-5.56-.63-5.58,1.48h0Z"/>
  <path class="cls-1" d="M699.63,1079.88c9.93,22.14,13.46,44.89,13.82,68.96.2,13.04-2.86,25.23-5.34,37.9-1.77,9.02-.93,17.61-.43,26.69.54,9.94.14,20.75,2.57,30.47.67,2.69,9.02,3.73,8.27.73-2.09-8.36-1.87-17.59-2.34-26.14-.51-9.37-1.76-18.75-.1-28.06,2.21-12.38,5.64-24.29,5.71-36.98.05-9.45-.3-19.01-1.39-28.4-1.81-15.42-6.16-30.29-12.5-44.45-1.16-2.59-9.4-3.26-8.27-.73h0Z"/>
  <path class="cls-1" d="M774.33,1295.1c-7.6-12.81-19.29-20.88-31.96-28.15-10.12-5.8-23.43-12.04-25.86-24.72-.79-4.11-4.71,1.69-4.25,4.07,2.35,12.28,12.52,18.9,22.65,24.77,13.55,7.85,27.27,15.54,35.51,29.44,1.77,2.99,5.13-3.36,3.91-5.42h0Z"/>
  <path class="cls-1" d="M650.41,1265.6c-19.68,15.16-16.92,45.58,5.65,56.6,14.78,7.21,34.02,4.5,49.13-.55,3.01-1.01-3.39-7.34-6.42-6.33-11.56,3.86-25.65,6.2-37.61,3.24-22.13-5.48-19.5-34.95-4.33-46.63,2.94-2.26-4.07-8.14-6.42-6.33h0Z"/>
  <path class="cls-1" d="M709.54,1326.39c5.29-1.21,10.93,1.07,15.81,2.9,6.4,2.39,12.62,5.25,19.09,7.46,10.92,3.73,21.14,3.17,32.1-.19,10.23-3.14,20.96-8.54,26.84-17.88,3.88-6.16,7.32-18.33-1.97-21.49-6.26-2.13-13.98-.32-20.07,1.68-2.12.69-4.36,7.71-1.22,6.68,4.28-1.4,9.45-2.38,14.09-2.15,2.93.15,6.48.88,7.98,3.72,2.02,3.85-.66,8.44-3.3,11.21-6.99,7.34-17.9,11.23-27.63,13.14-10.03,1.97-18.53.43-28.02-3.21-5.89-2.26-11.65-4.87-17.63-6.9-4.3-1.46-9.21-3.02-13.78-1.98-2.4.55-4.54,7.52-2.3,7.01h0Z"/>
  <path class="cls-1" d="M585.05,1038.45c-22.6,17.02-28.87,48.71-30.33,75.28-.79,14.38.16,28.94-1.4,43.27-1.26,11.56-5.98,20.94-14.03,29.3-1.92,2,2.43,7.44,4.16,5.64,7.5-7.79,12.7-16.55,14.5-27.3,2.21-13.19,1.19-26.93,1.64-40.24.94-27.89,5.61-62.22,29.62-80.31,2.14-1.61-2.03-7.25-4.16-5.64h0Z"/>
  <path class="cls-1" d="M536.12,1189.84c-13.76,6.32-23.28,20.3-22.16,35.71.58,7.89,4.32,15.3,8.22,22.06,2.74,4.74,6.13,8.5,11.03,11.05,7.34,3.83,15.75,4.61,23.16,8.3,7.72,3.84,14.47,9.56,20.32,15.85,4.64,4.99,8.17,10.89,12.8,15.85,5.08,5.44,11.59,9.49,18.47,12.26,11.12,4.48,28.23,7.32,36.43-3.93,2.99-4.1-1.81-3.71-3.86-.9-2.23,3.06-8.89,2.84-12.17,2.66-5.91-.32-11.8-1.91-17.23-4.23-5.96-2.55-11.53-6.2-16.04-10.88-3.87-4.01-6.78-8.89-10.4-13.13-9.21-10.77-20.58-19.61-34.44-23.27-5.76-1.52-11.84-3.18-16.51-7.06-3.82-3.17-6.2-7.53-8.37-11.91-3.5-7.06-6.4-13.92-5.59-22,.92-9.17,6.1-16.98,14.51-20.84,1.38-.63,3.47-2.21,3.66-3.87.14-1.27-.19-2.48-1.83-1.73h0Z"/>
  <path class="cls-1" d="M611.27,1204.08c-1.74,7.5-3.87,14.92-6.02,22.32-.98,3.37-1.49,5.33.78,8.13,10.32,12.68,19.55,27.23,23.81,43.13.46,1.7,2.05.07,2.57-.56,1.01-1.24,1.29-3.39.89-4.9-4.49-16.75-14.53-32.7-25.79-45.79.05,1.23.09,2.46.14,3.69,2.64-8.9,5.17-17.85,7.27-26.9.25-1.09.22-2.99-1.22-3.02s-2.22,2.99-2.43,3.9h0Z"/>
  <path class="cls-1" d="M491.98,494.19c-14.62,6.43-31.19,18.09-47.84,13.05-9.13-2.76-17.96-8.42-24.36-15.45-5.21-5.72-8.8-12.57-13.37-18.76-8.11-10.98-20.99-15.98-34.19-10.78-11.98,4.72-18.97,16.94-25.22,27.44-9.13,15.34-18.43,30.82-34.38,39.93-1.98,1.13.61,7.17,2.3,6.21,13.87-7.91,23.11-20.51,31.2-33.95,6.65-11.04,13.02-24.84,24.61-31.57,5.98-3.47,13.18-4.58,19.95-3.23,7.68,1.53,12.41,6.88,16.59,13.11s8.15,12.76,13.49,18.2c6.09,6.21,13.79,10.98,21.89,14.1,18.25,7.02,35.37-4.94,51.63-12.09,2-.88-.39-7.05-2.3-6.21h0Z"/>
  <path class="cls-1" d="M305.22,535c-32.39,22.92-71.9,33.2-106.93,51.11-5.99,3.06-12.33,6.71-12.35,14.24-.02,6.88,4.77,12.45,10.19,16.1,6.09,4.11,13.5,6.99,20.88,7.35,7.18.35,14.25-2.84,20.7-5.63,13.67-5.92,26.9-13.07,39.73-20.62,1.87-1.1.14-7.78-2.14-6.44-9.56,5.62-19.35,10.91-29.32,15.77-6.82,3.32-13.8,6.62-21.08,8.77-6.66,1.97-12.99,1.34-19.5-1.05-4.5-1.65-15.55-6.37-15.95-12.29-.39-5.77,11.23-9.93,15.29-11.87,15.97-7.59,32.46-14.05,48.67-21.1,18.45-8.03,37.45-16.22,53.94-27.89,1.82-1.29-.05-7.92-2.14-6.44h0Z"/>
  <path class="cls-1" d="M266.3,596.2c-4.56,6.77-8.68,14.04-11.28,21.8-1.8,5.37-3.22,11.73-.88,17.17,4.76,11.08,18.78,5.02,26.74,1.55,13.33-5.81,26.04-13.64,37.36-22.75,8.72-7.01,17.56-15.36,19.27-26.96.89-6.03-2-16.49-10.03-12.61-5.07,2.45-8.82,7.95-11.82,12.47-4.77,7.19-9.67,15.35-11.67,23.83s.59,18.05,9.43,21.51c7.86,3.07,17.35,1.78,25.3-.28,8.46-2.19,16.18-7.37,23.26-12.33,16.19-11.34,29.25-26.24,39.45-43.11,1.29-2.13-2.18-7.89-3.51-5.71-12.92,21.36-30.13,38.44-51.83,50.68-4.94,2.79-10.07,4.44-15.69,5.32-6.18.97-15.24,1.86-20.51-2.35-7.82-6.24,4.34-23.96,7.67-29.34,2.87-4.63,6.15-9.67,10.54-13.03,1.25-.96,2.5-1.6,3.99-2.06.6-.19,1.79.53,1.15-.23,1.55,1.83-1.1,8.14-1.84,9.87-1.73,4.07-4.75,7.53-7.81,10.67-8.59,8.82-19.06,15.91-29.68,22.05-8.98,5.19-20.08,11.89-30.7,12.7-2.39.18-5.08.14-5.82-2.38-.82-2.77.67-6.8,1.5-9.39,2.46-7.64,6.45-14.77,10.92-21.4,1.39-2.06-2.03-7.89-3.51-5.71h0Z"/>
  <path class="cls-1" d="M377.43,525.44c3.2,3.39,4.7,8.42,6.28,12.7,1.97,5.34,3.78,10.75,6.17,15.92,3.82,8.26,9.31,16.67,19.37,16.4,12.03-.32,24.22-1.66,36.02-3.99,7.01-1.38,21.17-3.29,23.91-11.44.67-2-2.9-8.14-3.86-5.28-1.13,3.37-5.81,5.05-8.8,6.18-4.87,1.84-10.02,2.99-15.13,3.95-11.35,2.15-23.22,3.68-34.79,3.71-10.35.02-14.04-10.93-17.08-19.09-3.12-8.36-5.52-18.07-11.82-24.73-1.16-1.22-1.85-.34-2.17.85-.4,1.5.91,3.79,1.89,4.82h0Z"/>
  <path class="cls-1" d="M370.88,627.3c12.44,9.06,29.35,10.64,42.67,2.55,14.91-9.05,22.56-26.02,27.47-42.05.63-2.05-3.91.11-4.37,1.62-4.34,14.18-11.03,30.9-24.76,38.51-11.87,6.58-26.74,3.62-37.33-4.09-1.28-.93-5.28,2.3-3.69,3.46h0Z"/>
  <path class="cls-1" d="M420.48,626.13c1.83,3.98,4.51,8.25,8.96,9.6,4.42,1.34,8.37-1.73,11.27-4.73,1.2-1.24-2.55-5.05-3.73-3.83-1.79,1.85-3.85,3.8-6.41,4.47-3.31.86-4.91-1.16-6.22-4-.46-1.01-1.44-2.48-2.63-2.71-.86-.16-1.77.05-1.24,1.2h0Z"/>
  <path class="cls-1" d="M723.17,773.03c-4.03,3.98-6.88,9.9-6.2,15.67.75,6.48,5.99,7.27,11.31,5.23,2.27-.87,1.95-7.72-.68-6.71-1.49.57-6.31,2.26-6.98-.41-.62-2.49,2.63-6.21,4.17-7.73,1.65-1.63.7-8.33-1.6-6.05h0Z"/>
  <path class="cls-1" d="M412.28,853.5c-1.61,9.32-2.15,18.92-2.18,28.37s-.25,20.11,4.33,28.18c3.81,6.72,12.36,9.02,17.15,2.03,5.02-7.33,4.47-16.68,5.15-25.14.71-8.94,1.49-17.87,2.29-26.8.18-2.03-5.84-4.74-6.05-2.4-.77,8.57-1.51,17.14-2.2,25.71-.68,8.42.45,21.71-6.95,27.65-2.15,1.72-2.85,1.8-4.07-.52-1.08-2.06-1.66-4.43-2.11-6.7-1.06-5.28-1.36-10.73-1.46-16.1-.19-10.59.36-21.41,2.16-31.87.33-1.95-5.63-4.8-6.05-2.4h0Z"/>
  <path class="cls-1" d="M439.34,837.18c11.23,5.98,18.65,15.27,28.22,23.23,5,4.15,12.62,6.71,17.69,1.17,5.06-5.52,4.26-14.45,2.3-21.05-3.72-12.57-13.36-22.55-23.8-29.96-1.35-.96-3.33-1.44-4.97-1.02-.77.2-2.97,1.13-1.51,2.17,9.23,6.55,17.54,14.82,21.86,25.47,2.47,6.09,4.04,14.13.91,20.32-.54,1.06-1.23,1.92-1.99,2.81-.23.27-1.07.97-1.44,1.04,0,0,.99.03.28-.1-2.76-.52-6.02-4.9-7.9-6.77-7.41-7.37-14.97-14.27-24.26-19.23-1.85-.99-8.86.07-5.38,1.92h0Z"/>
  <path class="cls-1" d="M394.92,811.97c-7.58,30.47-8.31,66.7,16,90.05,2.78,2.67,4.84.45,2.06-2.23-22.23-21.36-19.78-56.72-12.94-84.2.5-2-4.58-5.79-5.11-3.62h0Z"/>
  <path class="cls-1" d="M429.22,913.52c5.46,2.71,10.85,5.63,16.48,7.97,2.98,1.25,6.93,3.02,10.28,2.29,5.53-1.2,3.58-7.65,1.71-11.18-5.07-9.59-13.83-17.86-21.44-25.47-1.96-1.96-1.8,4.93-.31,6.42,5.84,5.84,11.56,11.92,16.55,18.5.95,1.25,2.27,4.45,3.5,5.26-.4-.27,2.32,2.76.32-.53-1.2-1.97.89-.4-.78-.4-1.35,0-2.38.53-3.87.3-8.03-1.28-15.88-6.57-23.04-10.13-1.87-.93-1.49,5.92.6,6.97h0Z"/>
  <path class="cls-1" d="M741.03,893.96c17.35,6.06,33.45,22.41,53.21,17.82,1.86-.43-.51-6.89-2.82-6.35-19.05,4.42-35.55-12.05-52.36-17.93-1.72-.6-.16,5.72,1.96,6.46h0Z"/>
  <path class="cls-1" d="M749.72,857.94c-13.11-6.75-11.69,18.4-11.33,24.52.2,3.4,4.05-.74,3.94-2.71-.28-4.64-.64-9.44-.04-14.07.45-3.51,1.11-4.22,4.56-2.44,1.9.98,4.76-4.33,2.87-5.3h0Z"/>
  <path class="cls-1" d="M776.1,883.41c2.33-4.94,5.37-10.4,10.23-13.28,5.74-3.41,8.14.96,8.12,6.52-.03,6.72-.23,15.99-4.02,21.95-.89,1.4.88,6.64,2.17,4.61,1.62-2.54,2.35-5.89,2.96-8.79,1.56-7.41,2.83-16.32.85-23.75-1.12-4.2-3.91-8.44-8.82-7.17-6.64,1.72-11,9.64-13.66,15.3-.7,1.49,1.2,6.67,2.17,4.61h0Z"/>
  <path class="cls-1" d="M726.34,426.37c1.75,7.87,10.98,11.28,18.17,11.83,2.3.18,4.9-5.54,2.29-5.75-6.01-.46-14.65-3.17-16.15-9.9-.66-2.95-4.79,1.65-4.31,3.82h0Z"/>
  <path class="cls-1" d="M725.97,426.13c-.03,3.37.26,7.01,3.28,9.07,4.05,2.78,10.21,2.42,14.86,2.44,1.87,0,5.74-4.63,3.07-4.64-4.14-.02-9.97.43-13.57-2.11-2.6-1.83-2.63-5.23-2.61-8.11.02-1.81-5.02,1.26-5.04,3.33h0Z"/>
  <path class="cls-1" d="M669.41,453.99c4.15,8.04,9.31,15.06,17.24,19.11,7.85,4.08,16.61,4.62,25.53,3.15-3.76,2.99-8.58,4.69-13.55,5.05-15.58,1.31-29.67-11.69-29.23-27.31h0Z"/>
  <g>
    <path class="cls-1" d="M691.13,470.52c13.23.26,9.72,4.46,1.91,8.66-9.85,5.3-11.72.57-12.97-7.51-1.24-8.08,4.59-9.46,11.05-1.15"/>
    <path class="cls-1" d="M692.84,472.82c1.33.04,2.67.07,3.99.29.76.12,2.58.56.03-.67-.61-.3.17-.55-.42.21-.36.46-.71.86-1.16,1.25-1.29,1.12-2.79,2.01-4.28,2.85-1.15.65-2.32,1.27-3.56,1.72-.73.27-2.11.27-2.7.65-.81.52,1.03,0,.78.56.02-.05-.89-1.68-.93-1.79-.69-1.85-1.07-3.93-1.26-5.89-.12-1.25-.3-4.02,1.2-4.69.49-.22.14-.11.64.12,1.2.54,2.36,2.2,3.13,3.15,1.03,1.28,2.87,2.35,4.56,2.24,1.39-.09,2.13-1.14,1.16-2.35-2.9-3.6-10.23-10.8-15.44-6.97-3.78,2.78-1.65,10.73-.01,14.22,2.25,4.81,7.67,6.96,12.68,5.49,2.84-.83,5.6-2.39,8.05-4.04,1.39-.94,3.24-2.2,3.84-3.85.85-2.35-1.55-4.3-3.39-5.24-3.15-1.6-6.84-1.76-10.3-1.86-1.54-.04-1.9,1.21-1.16,2.35.91,1.4,2.96,2.2,4.56,2.24h0Z"/>
  </g>
  <g>
    <path class="cls-1" d="M663.12,394.24c5.13,7.81,10.07,15.8,18.8,20.04,4.4,2.13,8.71,3.37,13.19.81,2.74-1.56,4.97-4.12,6.4-6.93.91-1.8-3.69-6.14-4.78-3.97-.87,1.72-2.2,3.31-3.66,4.56-4.24,3.64-8.75,2.94-13.39.27-6.1-3.51-9.47-9.87-13.21-15.55-1.64-2.5-5.71-2.83-3.34.77h0Z"/>
    <path class="cls-1" d="M663.32,395.01c7.06,9.9,19.68,16.66,31.19,19.76,3.04.82-.07-5.42-2.33-6.03-9.36-2.52-20.15-7.98-25.9-16.05-2.51-3.53-5.44-1.18-2.95,2.32h0Z"/>
  </g>
  <path class="cls-1" d="M736.07,865.03c-4.34-2.1-8.68-4.21-13.05-6.27-1.95-.92-2.09,1.57-1.85,2.85.37,1.95,1.72,4.63,3.63,5.53,4.36,2.06,8.7,4.17,13.05,6.27,1.95.94,2.09-1.59,1.85-2.85-.37-1.97-1.72-4.61-3.63-5.53h0Z"/>
  <path class="cls-1" d="M783.83,592.79c21.31,8.21,41.98,18.12,62.4,28.31,28.84,14.38,57.17,29.77,85.06,45.92,62.38,36.12,123.65,75.83,178.14,123.23,22.74,19.78,44.83,41.2,62.21,65.96,12.23,17.43,23.4,38.05,22.6,59.99-.87,24.07-17.63,43.75-39.04,53.22-29.97,13.25-65.61,11.22-97.31,7.09-41.53-5.4-82.28-16.56-122.04-29.5-39.07-12.72-77.46-27.53-115.29-43.54-8.13-3.44-16.23-6.95-24.31-10.5-3.56-1.57-.78,7.26,1.78,8.38,37.05,16.31,74.61,31.51,112.8,44.96,40.68,14.33,82.21,26.98,124.65,34.92,34.68,6.49,72.19,11.01,106.94,2.5,25.38-6.22,48.3-22.2,55.49-48.42,5.83-21.26-1.13-43.83-11.09-62.7-13.63-25.81-33.51-48.03-54.3-68.27-51.94-50.59-113.31-91.72-175.13-129.17-52.26-31.67-106.34-61.77-162.69-85.61-4.19-1.77-8.41-3.49-12.66-5.13-3.7-1.42-.83,7.38,1.78,8.38h0Z"/>
  <path class="cls-1" d="M489.08,742.95c18.06,10.19,36.44,19.73,55.07,28.83,2.72,1.33,10.91-1.31,6.31-3.56-18.63-9.1-37.01-18.65-55.07-28.83-2.67-1.51-10.82,1.02-6.31,3.56h0Z"/>
  <path class="cls-1" d="M332.19,631.06c25.54,22.34,51.45,44.09,79.53,63.2,1.72,1.17,4.24,1.5,6.21.71,1.13-.46,3.38-2.08,1.54-3.33-28.09-19.11-53.99-40.86-79.53-63.2-2.26-1.98-10.92-.15-7.75,2.63h0Z"/>
  <g>
    <path class="cls-1" d="M518.97,476.75c-68.56-22.56-135.94-51.03-206.66-66.35-24.39-5.28-51.76-10.38-76.4-3.8-8.51,2.27-16.82,6.43-22.39,13.44-6.62,8.32-8.72,19.49-8.51,29.9.05,2.5.24,4.98.52,7.46,3.06.14,6.11.28,9.15.43-2.29-18.6,1.95-38.9,21.49-45.85,9.45-3.36,19.82-3.73,29.75-3.32,13.47.55,26.91,2.81,40.08,5.6,32.58,6.9,64.41,17.19,95.93,27.84,37.62,12.71,74.87,26.48,112.59,38.9,3.35,1.1,10.07-2.43,4.46-4.27Z"/>
    <path class="cls-1" d="M232.57,507.3c-.95-1.73-1.88-3.47-2.79-5.23-3.32-.32-6.64-.67-9.95-1.03,10.68,21.47,24.77,41.14,39.94,59.65,2.03,2.48,10.71.98,8.69-1.5-13.34-16.28-25.76-33.41-35.88-51.89Z"/>
  </g>
  <path class="cls-1" d="M270.42,500.82c-3.6-10.62-14.18-18.95-22.75-25.53-9.16-7.03-19.68-14.43-31.1-17.16-.33-.14-.66-.22-.98-.24-.29-.06-.53-.07-.75-.04-25.51-1.25-51.82-2.39-77.17,1.42-8.58,1.29-26.85,4.8-18.12,17.14,7.03,9.94,23.11,12.24,34.06,14.65,19.19,4.22,38.73,6.93,58.25,9.11,18.69,2.09,37.79,4.19,56.63,3.55,1.62-.05,2.47-1.3,1.93-2.9ZM125.17,474.58s.01.01.02.02c-.04.03-.04.07.02.02.15.25-.41-.08-.03-.04ZM125.23,474.59s0,0,0,0c0,0,0,0,0,0,0,0,0,0-.01,0ZM220.75,492.98c-18.2-1.73-36.37-4.02-54.37-7.16-13-2.27-27.3-4.32-39.28-10.15-.54-.27-1.46-.83-1.56-.88-.1-.07-.18-.15-.27-.22.02-.02.04-.04.06-.08-.13.19.42-.82.65-1.05,3.42-3.5,9.48-4.37,14.04-5.21,25.92-4.77,53.49-3.1,79.64-1.81,9.02,1.94,17.72,8.37,24.93,13.8,4.15,3.12,8.2,6.44,11.86,10.13,1.41,1.43,3.18,3.09,4.51,4.92-13.4.19-26.89-1.02-40.21-2.28Z"/>
  <path class="cls-1" d="M762.78,623.76c24.72,9.36,48.4,21.89,71.76,34.16,35.84,18.83,71.04,38.91,105.59,60.02,37.48,22.9,74.3,47,109.47,73.33,29.17,21.83,58.33,45.23,81.82,73.27,11.86,14.15,30.52,37.76,21.6,57.52-8.9,19.72-35.94,21.91-54.62,21.8-33.65-.2-67.3-8.16-99.6-16.92-38.19-10.36-75.69-23.22-112.74-37.09-32.78-12.27-65.22-25.44-97.37-39.27-17.36-7.46-34.65-15.09-51.79-23.06-.78-.36-1.56-.73-2.34-1.09-2.33-1.1-2.76,5.7-.61,6.71,12.39,5.83,24.91,11.39,37.44,16.9,30.37,13.34,61.01,26.07,91.92,38.07,37.59,14.6,75.61,28.22,114.28,39.68,34.3,10.17,69.6,19.37,105.37,22.26,21.3,1.72,50.15,2.7,66.46-13.94,15.78-16.1,8.63-40.14-1.58-57.09-17.05-28.29-43.4-51.14-68.67-71.86-33.57-27.51-69.43-52.21-105.95-75.62-36.49-23.39-73.85-45.45-111.86-66.27-27.78-15.21-55.9-30.14-84.94-42.85-4.3-1.88-8.64-3.71-13.03-5.37-2.49-.94-2.8,5.88-.61,6.71h0Z"/>
  <path class="cls-1" d="M498.75,706.57c19.38,11.8,39.07,23.09,59.11,33.75,2.03,1.08,1.85-6.03-.35-7.2-19.7-10.48-39.07-21.56-58.14-33.17-2.83-1.72-2.56,5.43-.62,6.61h0Z"/>
  <path class="cls-1" d="M398.13,639.27c10.36,7.74,21.19,14.8,31.78,22.21,2.67,1.86,2.49-5.31.62-6.61-10.59-7.41-21.42-14.47-31.78-22.21-2.58-1.93-2.45,5.25-.62,6.61h0Z"/>
  <path class="cls-1" d="M254.36,501.22c11.4,17.35,25.32,32.93,39.75,47.79,1.24,1.27,2-.84,2.15-1.74.28-1.64-.39-3.69-1.54-4.87-14.12-14.54-27.68-29.81-38.84-46.78-.94-1.43-1.89-.69-2.47.45-.73,1.43.14,3.93.94,5.15h0Z"/>
  <path class="cls-1" d="M357.31,457.36c-28.05-8.52-57.94-17.87-87.54-18.04-7.98-.04-17.33.56-24.03,5.44-8.94,6.51-7.78,18.66-5.13,28.12.65,2.33,5.33,5.12,4.19,1.05-2.72-9.73-2.39-20.61,7.51-25.56,7.53-3.76,16.93-3.7,25.12-3.29,27.74,1.38,55.37,9.8,81.78,17.82,2.68.81.09-4.92-1.89-5.52h0Z"/>
  <path class="cls-1" d="M481.3,499.7c-19.33-7.19-38.68-14.33-58.12-21.23-1.89-.67-5.36,4.67-2.96,5.52,19.44,6.9,38.79,14.04,58.12,21.23,1.87.7,5.36-4.63,2.96-5.52h0Z"/>
  <path class="cls-1" d="M270.42,500.82c-3.6-10.62-14.18-18.95-22.75-25.53-9.16-7.03-19.68-14.43-31.1-17.16-.33-.14-.66-.22-.98-.24-.29-.06-.53-.07-.75-.04-25.51-1.25-51.82-2.39-77.17,1.42-8.58,1.29-26.85,4.8-18.12,17.14,7.03,9.94,23.11,12.24,34.06,14.65,19.19,4.22,38.73,6.93,58.25,9.11,18.69,2.09,37.79,4.19,56.63,3.55,1.62-.05,2.47-1.3,1.93-2.9ZM125.17,474.58s.01.01.02.02c-.04.03-.04.07.02.02.15.25-.41-.08-.03-.04ZM125.23,474.59s0,0,0,0c0,0,0,0,0,0,0,0,0,0-.01,0ZM220.75,492.98c-18.2-1.73-36.37-4.02-54.37-7.16-13-2.27-27.3-4.32-39.28-10.15-.54-.27-1.46-.83-1.56-.88-.1-.07-.18-.15-.27-.22.02-.02.04-.04.06-.08-.13.19.42-.82.65-1.05,3.42-3.5,9.48-4.37,14.04-5.21,25.92-4.77,53.49-3.1,79.64-1.81,9.02,1.94,17.72,8.37,24.93,13.8,4.15,3.12,8.2,6.44,11.86,10.13,1.41,1.43,3.18,3.09,4.51,4.92-13.4.19-26.89-1.02-40.21-2.28Z"/>
  <path class="cls-1" d="M781.91,864.73c-.02-3.03-.54-7.09-3.1-9.12-1.03-.82-2.23-1.01-3.5-.75-2.24.46-4.63,1.55-6.36,3.07-1.77,1.56-3.05,3.6-4.13,5.68-1.62,3.1-2.87,6.42-3.97,9.73-1.41,4.23-2.53,8.62-2.85,13.08-.12,1.7-.24,3.6.17,5.28.08.33,4.8-1.15,4.61-1.95-.26-1.04-.26-2.17-.26-3.24.01-3.39.62-6.78,1.45-10.07,1.39-5.49,3.33-11.19,6.24-16.08.54-.9,1.12-1.78,1.79-2.59.29-.35.59-.7.92-1.01.23-.21.65-.42.81-.67l.09-.06c-.6.34-1.24.6-1.91.79-.16-.04.05-.02.09-.01.22.02.44,0,.66.03.58.1,1.09.35,1.54.71,2.56,2.03,3.08,6.1,3.1,9.12,0,.32,2.29-.54,2.46-.61.41-.17,2.15-.75,2.15-1.34h0Z"/>
  <path class="cls-1" d="M772.35,854.51c-6.07-3.85-15.14-4.68-20.01,1.6-3.34,4.3-3.66,10.78-4.23,15.96-.37,3.44-.63,6.92-.56,10.39.03,1.48,3.87,3.92,3.83,1.75-.13-6.82.41-14.65,2.53-21.14,2.48-7.62,11.23-10.25,17.89-6.02,2.66,1.68,2.43-1.34.55-2.53h0Z"/>
</svg>