<?xml version="1.0" encoding="UTF-8"?>
<svg id="Livello_6" data-name="Livello 6" xmlns="http://www.w3.org/2000/svg" viewBox="0 0 1307.23 1512.68">
  <defs>
    <style>
      .cls-1 {
        fill: #6e2b10;
      }
    </style>
  </defs>
  <path class="cls-1" d="M466.73,464.51c1.15,21.59-6.28,43.82-11.67,64.46-2.88,11.06-5.83,22.13-8,33.35-1.76,9.14-2.98,18.25-1.47,27.5,1.95,11.96,6.39,23.07,12.75,33.35,5.01,8.09,10.03,16.56,15.78,24.14,7.14,9.4,16.28,17.5,27.26,22.1,12.68,5.31,26.95,5.07,40.41,4.04,9.66-.73,18.89-1.65,27.98-5.32,13.69-5.54,24.84-15.56,33.59-27.29,1.8-2.42-6.37-8.18-8.28-5.61-12.69,17.02-30.45,29.31-51.96,31.03-12.08.96-24.41,2.11-36.37-.48-11.8-2.56-20.77-10.79-27.49-20.47-11.55-16.63-23.59-34.66-25.63-55.3-.76-7.74.61-15.67,2.07-23.25,2.03-10.55,4.77-20.97,7.48-31.36,5.54-21.28,13.37-44.19,12.18-66.45-.17-3.15-8.8-7.35-8.65-4.44h0Z"/>
  <path class="cls-1" d="M502.02,583.18c2.72,8.64,14.28,10.76,21.68,7.61,1.22-.52,3.46-1.89,3.47-3.45,0-1.48-1.23-1.75-2.51-1.21-5.49,2.34-14.61.01-16.6-6.32-.84-2.68-6.74,1.11-6.03,3.37h0Z"/>
  <path class="cls-1" d="M564.3,523.73c5.27-.73,10.94.9,15.85,2.64,6.05,2.14,12.02,5.14,16.86,9.4,2.22,1.95,4.36,4.36,5.43,6.95.76,1.86,1.38-1.15,1.45-1.73.24-2.02.42-4.65-.38-6.59-2.32-5.66-7.42-9.58-12.52-12.62-5.61-3.34-11.87-5.85-18.27-7.14-2.74-.55-5.62-.93-8.41-.55-1.19.16-1.07,4.03-1.06,4.82,0,.51.02,4.96,1.06,4.82h0Z"/>
  <path class="cls-1" d="M594.11,554.75c-2.93-7.47-8-14.54-15.63-17.74-8-3.36-16.01-.42-22.62,4.5-2.2,1.63,3.91,8.66,6.43,6.79,8.91-6.63,20.43-8.26,25.12,3.7.73,1.87,2.51,4.22,4.54,4.8,1.61.46,2.92-.11,2.16-2.04h0Z"/>
  <path class="cls-1" d="M509.29,532.29c-.47-15.51-20.06-23.79-31.83-13.58-1.92,1.67,3.34,6.5,5.49,4.64,3.15-2.74,7.82-3.75,11.9-3.4,5.96.51,8.24,4.06,8.41,9.86.08,2.47,6.13,5.98,6.03,2.48h0Z"/>
  <path class="cls-1" d="M510.18,495.43c-11.15-4.74-27.23-9.55-36.43,1.16-2.22,2.58-1.28,12.16,2.51,7.75,7.43-8.65,23.66-2.47,32.21,1.16,3,1.27,5.33-8.53,1.71-10.07h0Z"/>
  <circle class="cls-1" cx="494.8" cy="525.5" r="8.05"/>
  <circle class="cls-1" cx="573.85" cy="547.12" r="8.05"/>
  <path class="cls-1" d="M503.03,537.37c-6.01,1.25-12.18.36-17.49-2.73-2.22-1.29-4.45-2.94-6.06-4.96-.6-.76-1.88,1.17-1.35,1.84,1.73,2.17,4.14,3.96,6.53,5.32,5.51,3.14,11.84,3.91,18.01,2.63.79-.16,1.49-2.32.36-2.09h0Z"/>
  <path class="cls-1" d="M583.82,557.15c-5.78,1.65-13.79,2.41-18.16-2.75-.25-.3-.5-.61-.68-.95-.42-.78-1.76,1.08-1.35,1.84.56,1.05,1.56,1.94,2.5,2.63,2.51,1.86,5.7,2.6,8.78,2.63,2.9.03,5.78-.52,8.55-1.31.77-.22,1.45-2.4.36-2.09h0Z"/>
  <path class="cls-1" d="M485.19,596.06c5.19,10.3,13.86,16.8,24.01,21.1,10.18,4.07,20.93,5.82,31.69,1.59-1.77,2.46-4.3,4.4-7.11,5.81-19.18,9.44-49.59-5.9-48.6-28.5h0Z"/>
  <g>
    <path class="cls-1" d="M510.56,614.8c-13.7-11.32-13.81-3.97-9.53,7.15,5.39,14.02,10.13,9.53,18.47,2.38s4.92-12.35-8.94-9.53"/>
    <path class="cls-1" d="M513.7,613.95c-3.21-2.6-14.67-12.27-18.88-6.26-1.36,1.94-.64,4.93-.16,7.02.94,3.99,2.38,8.01,4.42,11.57,3.24,5.68,9.93,9.96,16.36,6.72,3.07-1.55,5.8-4.04,8.32-6.35,2.09-1.9,4.72-4.46,4.7-7.52-.02-3.61-3.85-6.08-6.87-7.15-4.59-1.63-9.54-1.03-14.21-.14-2.23.42-.91,2.87.05,3.82,1.57,1.55,4.13,2.53,6.32,2.12,1.76-.33,3.51-.62,5.31-.65,1.58-.02,2.31.62,1.38-.33-1.33-1.36-.54-.71-1.1.25s-.96,1.85-1.69,2.7c-1.74,2.03-4.05,3.75-6.14,5.4-.95.75-1.94,1.54-3.01,2.12-.22.12-2.07.75-2.08.78-.1.2,2.03.48,1.98.64,0,0-.88-1.45-.71-1.01-.56-1.49-1.52-2.91-2.12-4.4-.95-2.38-1.9-4.87-2.33-7.41-.22-1.26-.06-2.55,0-3.63-.03.54-1.57-.92-.14.29,1.34,1.14,2.96,2.02,4.34,3.14,1.49,1.21,4.29,2.99,6.32,2.12,1.87-.8,1.35-2.68-.05-3.82h0Z"/>
  </g>
  <path class="cls-1" d="M644.04,575.99c11.57-5.89,16.57,8.91,15.34,17.91-1.46,10.74-13.01,23.65-24.51,16.86-1.83-1.08-4.99-1.49-6.9-.37-1.66.98-2.09,2.55-.2,3.66,16.56,9.77,38.75-.43,41.36-19.64,1.18-8.69-1.41-17.73-9.43-22.18-6.72-3.73-15.55-3.75-22.37-.28-4.96,2.53,3.75,5.53,6.7,4.03h0Z"/>
  <path class="cls-1" d="M441.29,424.54c7.05,2.54,15.49,3.33,21.9-1.34,4.23-3.08,7.13-9.02,4.37-14.03-4.64-8.44-18.52-6.67-25.44-2.83-21.62,12-11.49,43.61,8.6,50.68,17.03,6,33.73-3.62,46.37-14.42,2.4-2.05-5.34-5.12-7.73-3.09-9.25,7.9-24.24,18.55-37.14,12.93-8.17-3.56-12.98-12.69-13.77-21.24-.92-10,4.97-20.73,15.35-22.76,3.1-.61,5.91-.59,6.39,3.01,1.13,8.45-9.48,11.4-15.67,9.17-1.36-.49-4.51-1.19-5.48.42s.87,3.01,2.24,3.5h0Z"/>
  <path class="cls-1" d="M484.93,431.37c6.03,10.97,19.66,18.26,31.39,21.04,20.74,4.92,40.01-4.09,54.62-18.59,1.61-1.6,1.97-8.37-.85-5.57-14.1,14-32.76,22.31-52.66,17.14-10.54-2.74-23.37-9.29-28.85-19.27-1.58-2.87-4.76,3.24-3.66,5.26h0Z"/>
  <path class="cls-1" d="M566.04,419.21c-1.96,15.89-3.61,31.75-.44,47.64,4.61,23.11,19.15,40.71,41.7,48.31,9.48,3.19,23.5,7.02,33.05,1.88,6.16-3.31,8.41-11.25,6.66-17.77-1.31-4.88-5.35-9.39-10.71-9.43-8.36-.07-13.86,9.37-16.4,16.11-4.87,12.89-2.74,28.28,8.34,37.27,13.54,10.98,32.45,8.11,46.99.91,2.88-1.43,2.88-11.3.02-9.89-11.76,5.82-25.97,8.95-38.42,3.24-8.53-3.91-16.23-12.9-14.51-22.83,1-5.79,5.65-14.43,12.46-14.71,4.48-.19,6.08,3.11,7.97,5.53.75.96-.39-.48.11-.3-.43-.16.92-.81,0-.17-.33.23-.61.78-.93,1.07-2.15,1.89-5.24,2.63-8.01,2.93-10.69,1.17-22.76-2.24-32.37-6.7-17.03-7.91-28.22-23.01-31.65-41.36-2.58-13.79-1.02-27.39.68-41.15.16-1.33.34-5.08-1.64-5.33-1.96-.25-2.77,3.54-2.92,4.76h0Z"/>
  <path class="cls-1" d="M634.41,549.23c-.19,7.05,3.18,14.47,8.3,19.32,1.31,1.24,3.44,2.02,4.18-.17s-.98-5.24-2.47-6.65c-.25-.24-.5-.49-.72-.75.88,1.01-.86-1.2-.79-1.09-1.07-1.61-1.69-3.86-1.63-6.13.06-2.32-1.48-5.17-3.45-6.39-1.83-1.13-3.36-.32-3.42,1.85h0Z"/>
  <path class="cls-1" d="M449.05,399.83c2.12-8.36,6.33-15.82,13.87-20.36,6.48-3.9,13.98-5.18,21.44-5.43,1.95-.07,3.07-3.72,3.15-5.13.87-14.35,16.8-23.95,28.91-28.16,17.2-5.98,36.67-4.88,52.56,4.26,11.27,6.48,19.82,16.7,25.81,28.12.64,1.21,1.54,1.01,2.49.24,25.75-20.8,70.69-20.68,86.71,11.99,6.04,12.32,7.24,26.33,6.55,39.85-.04.87.02,2.03.93,2.46,17.19,8.04,34.27,19.97,43.68,36.89,4.94,8.88,7.29,19.08,5.89,29.21-1.98,14.26-10.44,26.63-19.62,37.29-1.95,2.26-1.58,8.96,1.84,4.99,17.21-19.97,29.84-47.16,18.29-73.09-8.88-19.93-28.06-33.83-47.3-42.83.31.82.62,1.64.93,2.46,1.12-22.19-2.85-47.46-21.98-61.48-14.49-10.62-33.83-11.93-50.76-7.23-9.44,2.62-18.23,7.03-25.85,13.19l2.49.24c-10.93-20.86-29.59-35.93-53.57-37.75-18.25-1.38-38.28,4.75-51.24,18.04-6.31,6.48-10.83,14.78-11.38,23.92,1.05-1.71,2.1-3.42,3.15-5.13-9.36.32-18.68,2.48-26.19,8.34-8.18,6.39-12.64,15.91-15.14,25.77-1.33,5.25,3.42,2.96,4.35-.68h0Z"/>
  <path class="cls-1" d="M712.37,535.59c-6.27,6.6-2.88,19.61-4.05,27.8-2.65,18.46-19.97,27-36.43,31.17-3.06.78-4.51,9.76-1.21,8.92,18.4-4.67,35.18-14.37,40.98-33.43,1.88-6.19,2.36-12.68,2.39-19.12,0-2.42-.11-4.85.01-7.26.02-.41.3-1.06.19-1.9.11.86-.02.24.08-.19-.08.35-.92,1.61-.52,1.2,2.05-2.15,2.14-10.96-1.43-7.2h0Z"/>
  <path class="cls-1" d="M420.46,440.05c-8.36,10.55-11.83,25.2-9.79,38.43,2.73,17.74,15.56,30.31,31.26,37.76,1.36.65,3.81.99,4.24-.88.43-1.89-2.81-3.69-4.05-4.28-13.75-6.52-22.91-18.79-23.69-34.17-.58-11.41,2.84-23.22,9.96-32.21,1.9-2.39-5.8-7.34-7.93-4.65h0Z"/>
  <path class="cls-1" d="M440.04,516.28c-1.43,7.66-.19,15.56,3.44,22.47,2.47,4.7,6.77,10.71,12.48,11.48,2.92.4,1.62-7.55-.89-7.89-8.93-1.21-12.42-13.76-11.05-21.08.44-2.35-3.17-9.32-3.98-4.97h0Z"/>
  <path class="cls-1" d="M638.83,626.65c-3.75,10.41-7.35,20.69-13.07,30.22-2.66,4.44,2.66,9.05,5.68,4.01,6.13-10.21,9.91-21.33,13.93-32.47,1.92-5.32-4.66-6.98-6.54-1.75h0Z"/>
  <path class="cls-1" d="M413.59,478.49c-9.45-1.99-18.9-4.87-28.53-5.91-8.1-.88-16.04.44-23.82,2.69-11.08,3.21-21.61,7.91-32,12.86-8.75,4.17-17.86,9.32-27.54,10.93-11.15,1.85-18.83-5.54-27.26-11.59-11.19-8.04-22.36-16.1-33.66-23.99-11.43-7.97-22.94-15.88-34.91-23.02-4.39-2.62-8.85-5.21-13.53-7.3-2.37-1.06-5.7-2.73-8.39-2.32-4.51.69-6.88,7.4-7.83,11.17-1.95,7.7-.76,16.19,1.4,23.71,4.66,16.18,14.37,29.62,26.98,40.53,20.89,18.07,44.16,33.72,67.31,48.75,4.11,2.67,1.67-5.52-.58-6.98-19.16-12.44-38.07-25.45-56.06-39.53-11.72-9.17-23.01-18.69-29.27-32.57-3.55-7.86-5.96-16.97-4.63-25.64.53-3.45,2.73-10.97,6.55-11.4,2.69-.3,6.23,1.87,8.52,2.99,4.68,2.28,9.16,4.95,13.58,7.68,11.5,7.08,22.64,14.75,33.7,22.5,10.53,7.38,20.96,14.91,31.4,22.41,7.28,5.23,15.23,12.75,24.62,13.08,8.67.31,17.3-3.75,24.98-7.29,10.87-5.02,21.51-10.46,32.81-14.48,9.63-3.42,19.56-6.14,29.87-5.22,10.01.89,19.82,3.96,29.63,6.02,2.5.53-.43-7.46-3.33-8.07h0Z"/>
  <path class="cls-1" d="M254.41,547.78c-12.39-1.21-28.47-3.12-40.03,2.8-10.62,5.44-3.34,17.13,2.3,23.5,19.62,22.18,56.11,27.47,82.96,16.97,8.18-3.2,15.32-10.02,7.7-18.09-7.38-7.8-20.34-4.06-28.67-.17-9.98,4.66-17.67,13.43-18.71,24.68-.88,9.56,3.69,19.33,11.24,25.17,12.21,9.45,29.09,4.45,42.68,1.25,8.57-2.01,17.42-4.38,25.43-8.14,2.18-1.02-2.57-8.36-5.33-7.06-4.21,1.97-8.71,3.41-13.15,4.75-11.31,3.42-23.6,6.5-35.42,7.2-7.56.45-16.05-2.14-18.51-10.05-2.29-7.34.11-15.65,4.82-21.52,6.2-7.72,16.99-12.7,26.82-13.13,1.95-.08,3.7.45,5.59.55.02,0,1.55.56,1.52.61.32-.52-1.43-1.38-1.03-1.49.13-.03-1.31,2.79-1.47,2.99-1.4,1.67-3.47,2.87-5.37,3.85-11.33,5.82-26.22,6.83-38.69,5.75-11.61-1.01-23.48-4.53-33.04-11.34-3.77-2.69-10.44-7.63-11.02-12.66-.46-4.01,3.6-6.3,6.84-7.46,11.36-4.07,25.14-2.66,36.86-1.51,2.35.23-1.45-7.17-4.3-7.45h0Z"/>
  <path class="cls-1" d="M305.44,629.73c5.48,10.46,18.11,15.52,29.37,16.64,4.17.41,2.74-9.4-.74-9.75-9.03-.9-20.71-4.31-25.19-12.86-.88-1.67-2.71-2.64-4.01-.93-1.38,1.81-.34,5.17.57,6.91h0Z"/>
  <path class="cls-1" d="M732.43,453.87c11.28-10.73,23.76-20.94,39.79-22.7,21.48-2.36,40.93,10.2,60.15,17.69,12.35,4.81,26.41,9.9,39.87,7.49,9.1-1.63,16.82-7.36,24.34-12.4,22.07-14.79,43.47-30.9,66.55-44.12,3.43-1.97,6.86-3.66,10.55-5.07,3.13-1.2-1.72-.12-.75-1.61-.15.24.97,3.42,1.03,3.73.31,1.7.45,3.42.54,5.14.5,9.53.17,19.63-5.25,27.71-20.46,30.51-50.5,56.63-85.01,69.63-3.41,1.28,1.98,8.57,4.87,7.48,33.88-12.75,62.74-37.39,83.7-66.65,1.92-2.68,4.06-5.43,5.59-8.37,2.52-4.82,2.76-11.26,3.05-16.57.37-6.68.52-14.35-2.13-20.64-1.55-3.67-4.8-8.01-9.25-7.6-3.36.32-6.83,2.54-9.72,4.1-5.32,2.86-10.46,6.09-15.55,9.34-12.75,8.14-25.2,16.75-37.67,25.3-9.35,6.41-18.59,13.27-28.44,18.9-11.37,6.5-23.78,5.15-35.88,1.43-22.76-7-44.12-22.42-68.53-22.72-19.44-.24-34.39,10.76-47.89,23.6-2.4,2.28,3.69,9.13,6.03,6.9h0Z"/>
  <path class="cls-1" d="M902.9,507.52c8.89-1.06,18.01-.86,26.72,1.36,3.21.82,6.41,1.9,9.33,3.47,1.18.64,2.17,1.51,3.3,2.2.27.16.98,1.22,1.17,1.22-.69-.03.9-1.72-.12-1.31-.43.17-1.31,2.51-1.55,2.91-.82,1.38-1.72,2.71-2.68,3.99-2.6,3.48-5.64,6.58-9.04,9.3-9.26,7.4-20.62,11.29-32.41,11.98-14.27.83-30.45-1.93-43.62-7.59-1.73-.74-3.55-1.55-5.07-2.68-1.78-1.32-1.67-2.69-1.64.46.03,3.01-.41,1.79,1.27,1.11,1.1-.44,2.27-.64,3.45-.77,11.98-1.25,27.71,6.12,34.94,15.63,1.13,1.49,1.97,3.04,2.38,4.86-.26-1.13.05,1.63.05.98,0,2.13-.08,3.19-.69,5.5-1.14,4.36-3.85,8.56-7.66,11.3-6.86,4.93-15.99,4.96-23.99,3.58-16.41-2.83-31.81-11.37-45.87-19.88-2.38-1.44-2.88,7.1-.36,8.63,14.84,8.98,31.05,17.8,48.46,20.33,8.51,1.23,18.06.55,24.91-5.22,10.29-8.68,12.85-26.67,4.56-37.42-7.98-10.35-25.51-19.49-38.85-16.94-7.23,1.38-8.62,9.64-3.56,14.71,3.58,3.59,9.12,5.35,13.83,6.79,8.93,2.73,18.46,4.57,27.77,5.33,15.12,1.23,30.62-2.11,42.85-11.38,6.7-5.07,16.76-14.62,16.89-23.84.1-7.25-5.54-11.46-11.69-13.94-10.56-4.27-22.66-4.85-33.84-3.51-2.94.35-2.1,9.19.77,8.84h0Z"/>
  <path class="cls-1" d="M746.64,521.75c6.66-5.89,12.78-12.26,18.92-18.68,4.28-4.48,8.86-9.47,15.09-11.03,11-2.76,23.52-2.33,34.82-2.57,2.4-.05,5.08-7.1,2.48-7.05-4.73.1-9.45.3-14.17.55-7.24.39-15.27.3-22.25,2.46-5.55,1.71-9.92,5.73-13.95,9.75-6.91,6.9-13.39,14.13-20.72,20.61-1.15,1.02-2.72,3.21-2.43,4.86.23,1.29.85,2.32,2.22,1.11h0Z"/>
  <path class="cls-1" d="M429.99,524.53c-9.19-2.27-18.04-5.42-27.03-8.35-5.5-1.79-11.5-3.61-17.34-2.53-6.83,1.26-13.58,4.85-19.86,7.69-4.7,2.13-9.38,4.33-14,6.62-2,.99-4.17,8.11-1.38,6.73,4.04-2.01,8.13-3.94,12.23-5.82,6.46-2.96,13.51-6.85,20.54-8.18,5.75-1.08,11.53.77,16.94,2.55,8.79,2.9,17.47,5.95,26.47,8.17,2.59.64,5.51-6.36,3.43-6.88h0Z"/>
  <path class="cls-1" d="M848.74,584.25c-5.79,3.26-13.17,5.26-19.35,5.72-1.29.1-3.92.58-4.41,2.06-.46,1.37.52,2.08,1.94,1.97,8.48-.63,17.22-2.81,24.65-7,4.1-2.31.16-4.44-2.83-2.75h0Z"/>
  <path class="cls-1" d="M715.25,571.48c17.79,5.69,35.27,12.31,50.79,22.88,1.91,1.3,7.99-3.26,5.79-4.75-15.52-10.57-33.01-17.19-50.79-22.88-2.34-.75-7.86,4.09-5.79,4.75h0Z"/>
  <path class="cls-1" d="M770.11,595.85c14.23.88,28.13.68,42.24,3.52,24.69,4.97,47.81,16.48,64.09,36.07,3.45,4.15,3.14-2.98,1.31-5.18-16.53-19.9-39.36-32.28-64.4-37.92-15.21-3.42-30.17-3.27-45.56-4.23-2.81-.17-.31,7.57,2.33,7.73h0Z"/>
  <path class="cls-1" d="M875.12,630.99c21.39,12.6,45.21,25.82,60.33,46.09,4.42,5.92,7.13,12.93,8.37,20.19.65,3.81.43,7.58.79,11.37.22,2.3,1.18,4.54,1.67,6.82.81,3.79,1.27,7.65,1.47,11.52.38,7.29-.17,14.7-2.16,21.74-.63,2.24,7.93,3.27,8.76.34,1.99-7.04,2.53-14.45,2.16-21.74-.23-4.42-.82-8.83-1.83-13.14-.44-1.85-1.15-3.67-1.29-5.54-.92-12.25-2.4-23.42-10.37-33.48-16.11-20.33-39.57-33.74-61.59-46.7-2.17-1.28-10.41.12-6.31,2.54h0Z"/>
  <path class="cls-1" d="M944.16,756.98c-1.8,5.66-3.18,11.53-5.4,17.05-1.77,4.4-4.5,7.27-7.65,10.65-3.15,3.39-6.13,6.94-9.28,10.33-2.42,2.62-5.1,5.98-8.44,7.43-2.34,1.02,2.68,5.96,4.87,5.01,3.3-1.43,5.94-4.52,8.35-7.07,3.47-3.68,6.7-7.57,10.15-11.26,3.06-3.28,5.7-6.08,7.5-10.29,2.53-5.88,3.99-12.22,5.92-18.31.69-2.17-5.19-6.16-6.02-3.55h0Z"/>
  <path class="cls-1" d="M440.62,608.9c-24.58,2.85-46.34,15.56-67.06,28.24-2.81,1.72-.37,10.75,2.97,8.71,20.38-12.47,41.62-24.86,65.79-27.66,3.4-.39,1.88-9.7-1.7-9.28h0Z"/>
  <path class="cls-1" d="M367.26,641.54c-26.74,1.21-54,14.25-69.18,36.74-7.24,10.72-11.76,22.86-15.03,35.31-2.37,9.03-6.45,17.31-9.2,26.2-4.29,13.84-4.01,28.06.85,41.72.43,1.2,1.65,4.62,3.4,4.46s1.46-2.6,1.03-3.79c-5.3-14.89-3.47-29.12,2.16-43.55,1.79-4.6,3.93-9.1,5.31-13.85,1.92-6.61,3.43-13.27,5.86-19.73,5.88-15.63,15.52-29.46,29.37-38.96,14.02-9.62,30.77-15.54,47.78-16.31,3.1-.14.27-8.37-2.37-8.25h0Z"/>
  <path class="cls-1" d="M268.33,789.52c-.57,7.54-1.23,15.44,1.38,22.69,2.67,7.39,8.64,13.18,14.29,18.37,7.8,7.17,16.52,13.49,25.91,18.41,5.55,2.91,12.49,6.48,18.95,5.21,2.42-.48.81-3.18-.22-4.13-1.8-1.65-4.5-2.43-6.88-1.96-1.09.21-3.59-1.15-4.58-1.58-3.31-1.43-6.45-3.2-9.51-5.1-7.32-4.55-14.12-9.98-20.22-16.06-3.99-3.97-7.64-8.42-9.04-13.98-1.55-6.18-.84-12.9-.36-19.17.26-3.46-9.4-6.9-9.72-2.7h0Z"/>
  <path class="cls-1" d="M338.4,848.23c2.74-2.44,5.05-5.52,6.71-8.8.86-1.71-.89-2.95-2.36-3.51-1.23-.46-4.72-1.09-5.55.55-1.66,3.28-3.97,6.36-6.71,8.8-1.49,1.33,1.41,3.15,2.36,3.51,1.81.68,4.05.79,5.55-.55h0Z"/>
  <path class="cls-1" d="M323.79,808.04c13.5-9.36,23.59-22.78,31.81-36.8,2.53-4.32,5.29-9.75,10.14-11.83,4.93-2.12,10.54-.44,15.58.29,19.49,2.8,41.71.18,60.33-5.84,11.19-3.62,22.93-9.54,28.8-20.24,1.48-2.69-5.63-7.8-6.89-5.51-10.9,19.86-40.11,24.01-60.42,25.49-8.33.61-17.03,1.01-25.33-.14-10.49-1.46-18.98-2.91-25.68,6.75-5.06,7.29-8.95,15.17-14.5,22.17-5.71,7.2-12.21,14.23-19.8,19.49-2.71,1.88,3.79,7.68,5.96,6.17h0Z"/>
  <path class="cls-1" d="M770.8,713.76c-23.81,38.82-59.63,70.11-103.46,83.97-46.29,14.64-98.04,9.96-141.31-11.84-24.2-12.19-45.43-29.49-62.5-50.5-2.99-3.68-4.33.91-2.15,3.6,31.26,38.49,76.33,64.69,125.55,71.57,47.92,6.69,97.12-4.62,136.11-33.57,21.08-15.65,38.58-35.68,52.28-58.02,1.33-2.17-3.02-7.65-4.53-5.19h0Z"/>
  <g>
    <path class="cls-1" d="M440.82,382.65c-36.2,22.71-67.26,52.48-91.58,87.6-1.92,2.78.49,11.34,3.64,6.78,23.62-34.12,54.07-63.14,89.22-85.18,2.95-1.85,1.84-11.17-1.29-9.21h0Z"/>
    <path class="cls-1" d="M865.37,445.29c-56.11-64.98-136.64-106.69-222.3-113.9-27.86-2.35-55.84-1.14-83.41,3.43-2.34.39-.63,2.91.27,3.76,1.66,1.57,4.32,2.33,6.54,1.96,85.07-14.11,173.79,6.9,242.51,59.25,17.76,13.53,34.01,28.89,48.6,45.78,1.39,1.62,4.19,3.17,6.39,2.85,1.85-.27,2.84-1.47,1.4-3.14h0Z"/>
    <path class="cls-1" d="M941.93,669.7c2.15-44.74-4.61-89.32-20.22-131.31-1-2.7-6.93,4.64-5.8,7.69,15.2,40.9,21.83,84.53,19.73,128.09-.26,5.39,6.15-1.54,6.29-4.48h0Z"/>
    <path class="cls-1" d="M291.13,622.35c-2.09,21.71-2.05,43.52.1,65.23.41,4.14,11.19,5.05,10.85,1.63-2.15-21.71-2.18-43.52-.1-65.23.38-3.96-10.48-5.46-10.85-1.63h0Z"/>
  </g>
  <path class="cls-1" d="M714.74,782.41c7.88,1.99,14.37,8.1,19.82,13.82,8.05,8.47,14.74,18.2,20.77,28.18,12.82,21.21,23.22,44.48,29.41,68.51,2.59,10.06,4.88,20.92,3.62,31.35-.41,3.42,8.05,5.44,8.43,2.32,2.62-21.64-6.38-45.02-14.47-64.61-9.83-23.78-22.54-47.75-40.21-66.69-7.12-7.63-15.74-14.94-26.08-17.55-5.1-1.29-6.45,3.35-1.28,4.66h0Z"/>
  <path class="cls-1" d="M534.79,789.84c-18.55,14.72-29.88,38.6-37.62,60.38-11.37,31.97-15.26,66.53-11.64,100.24.42,3.89,5.23,6.35,4.66,1.04-3.5-32.56.38-65.7,11.36-96.56,7.43-20.9,18.43-43.82,36.2-57.93,2.27-1.8-.36-9.24-2.96-7.17h0Z"/>
  <path class="cls-1" d="M855.18,612.73c16.8-2.1,33.89-.71,50.3,3.33,6.71,1.65,13.41,3.76,19.69,6.67,3.86,1.79,8.13,3.86,10.85,7.23,1.4,1.73,8.31,1.93,6.35-.48-7.53-9.28-22.31-13.22-33.27-16.16-18.37-4.92-37.88-6.71-56.78-4.34-4.58.57.23,4.08,2.85,3.75h0Z"/>
  <path class="cls-1" d="M756.65,433.63c.15-3.08,2.05-6.43,3.27-9.19,2.27-5.14,4.82-10.17,7.51-15.11,4.72-8.67,10.16-19.72,18.37-25.67,2.26-1.64-1.09-10.12-3.93-8.07-8.58,6.22-14.13,17.81-19.07,26.88-2.83,5.2-5.52,10.51-7.88,15.95-1.33,3.06-3.12,6.6-3.28,9.99-.1,2.01.43,4.81,2.07,6.19,1.25,1.04,2.83,1.1,2.93-.98h0Z"/>
  <path class="cls-1" d="M865.23,724.39c-4.82-4.91-11.94-6.06-18.53-6.43-9.8-.54-19.65.22-29.46.08-29.99-.45-57.46-9.09-80.71-28.5-4.41-3.68-3.79,5.78-1.12,8,22.67,18.91,49.53,28.81,78.93,29.94,10.28.39,20.56-.27,30.84-.07,6.31.12,14.2.15,18.94,4.98,1.58,1.61,3.18.44,3.61-1.36.55-2.32-.94-5.06-2.5-6.64h0Z"/>
  <path class="cls-1" d="M928.7,764.5c-23.37-5.25-44.76-21.31-61.2-38.04-1.65-1.68-7.68,1.81-5.65,3.87,16.69,16.98,38.51,33.19,62.23,38.52,2.23.5,7.71-3.66,4.63-4.35h0Z"/>
  <path class="cls-1" d="M329.91,801.34l10.55-15.44,11.5-17.08,9.3-11.72,28.52.16s33.26-2.03,33.79-2.74,24.39-7.35,24.39-7.35l14.5-7,13.76,12.35,30.94,25.21,29.12,15.71-17.81,20.2s-7.33,10.2-12.52,22.68c-5.19,12.48-10.84,27.52-13.22,38.71-2.38,11.19-6.18,41.15-6.18,41.15l-1.94,33.22-24.46-12.74-41.06-27.27-52.57-51.66s-25.17-35.83-25.66-36.64c-.48-.81-10.95-19.74-10.95-19.74Z"/>
  <polygon class="cls-1" points="730.92 786.32 770.4 844.61 792.92 897.36 792.87 921.84 800.32 920.24 825.94 900.52 858.51 870.93 889.15 827.81 911.27 788.12 920.23 764.46 896.48 753.74 858.18 724.44 847.33 722.73 807.06 722.35 773.06 716.35 758.43 737.49 715.38 780.08 730.92 786.32"/>
  <polygon class="cls-1" points="859.61 615.26 875.23 629.06 898.77 640.5 935.75 671.93 939.2 655.29 934.64 623.78 903.47 613.76 878.27 610.1 851.03 612.42 859.61 615.26"/>
  <polygon class="cls-1" points="566.09 340.51 585.74 353.78 596.92 370.21 618.48 355.36 653.62 353.71 671.28 364.52 685.71 381.65 692.18 400.25 692.84 423.9 718.14 439.53 730.29 448.31 747.71 435.48 768.94 401.57 781.73 377.73 724.7 351.59 660.65 336.1 599.34 333.17 566.09 340.51"/>
  <path class="cls-1" d="M322.34,798.03c22.32,44.57,54.46,83.8,94.05,114.14,40.27,30.86,87.63,52.36,137.42,62.16,50.6,9.96,103.49,8.39,153.24-5.37,47.18-13.05,91.1-36.72,127.94-68.96,36.59-32.03,65.76-72.31,84.82-117.04,2.39-5.6,4.6-11.28,6.68-17,1.38-3.8-10.98-7.26-12.52-3-16.05,44.26-41.72,84.64-75.03,117.93-33.25,33.23-73.68,58.91-117.92,74.81s-96.66,22.03-145.52,15.88c-48.38-6.09-95.22-23.93-135.44-51.52s-72.7-63.04-96.61-104.6c-3.04-5.29-5.92-10.67-8.65-16.13-1.28-2.56-4.49-3.68-7.2-3.94-1.11-.11-6.52.11-5.26,2.64h0Z"/>
</svg>