<svg xmlns="http://www.w3.org/2000/svg" viewBox="0 0 79.2097 111.694" width="79" height="112">
  <g fill="#efdac9">
    <path d="m 63.688,53.547 15.522,0 c 0,-4.985 -3.475,-9.026 -7.761,-9.026 -4.287,0 -7.761,4.041 -7.761,9.026 m -47.766,0 15.522,0 c 0,-4.985 -3.475,-9.026 -7.761,-9.026 -4.286,0 -7.761,4.041 -7.761,9.026 M 77.529,0 65.368,0 l 0,43.472 12.161,0 0,-43.472 z m -15.921,0 -12.161,0 0,55.847 12.161,0 0,-55.847 z m -15.922,0 -12.161,0 0,55.847 12.161,0 0,-55.847 z m -15.922,0 -12.161,0 0,43.472 12.161,0 0,-43.472 z m -15.922,55.847 -12.161,0 0,-55.847 12.161,0 0,55.847 z"/>
    <path d="M 15.522,58.147 0,58.147 c 0,4.985 3.475,9.026 7.761,9.026 4.286,0 7.761,-4.041 7.761,-9.026 m 47.766,0.001 -15.522,-0.001 c 0,4.985 3.474,9.026 7.761,9.026 4.286,0 7.761,-4.041 7.761,-9.025 M 1.68,111.693 13.841,111.694 13.842,68.222 1.68,68.221 l 0,43.472 z m 15.922,0.001 12.161,0 10e-4,-55.847 -12.162,0 0,55.847 z m 15.921,0 12.162,0 10e-4,-55.847 -12.162,0 -10e-4,55.847 z m 15.922,0 12.162,0 0,-43.472 -12.161,0 -10e-4,43.472 z m 15.923,-55.847 12.161,10e-4 0,55.846 -12.162,0 10e-4,-55.847 z"/>
  </g>
</svg>
